 <svg version="1.0" xmlns="http://www.w3.org/2000/svg" width="700.000000pt" height="229.000000pt" viewBox="0 0 700.000000 229.000000" preserveAspectRatio="xMidYMid meet">
<metadata>
Created by potrace 1.12, written by Peter Selinger 2001-2015
</metadata>
<g transform="translate(0.000000,229.000000) scale(0.100000,-0.100000)" fill="#000000" stroke="none">
<path d="M855 1684 c-11 -2 -47 -9 -80 -15 -33 -6 -71 -16 -85 -21 -177 -75
-280 -174 -359 -348 -31 -69 -50 -249 -32 -310 5 -19 18 -62 27 -95 24 -84
111 -213 181 -269 67 -52 174 -108 233 -120 14 -2 43 -9 66 -15 51 -13 212 -7
227 8 6 6 21 11 34 11 13 0 31 4 41 9 9 5 44 22 77 38 73 34 193 149 224 213
12 25 25 52 30 60 25 46 31 62 31 83 0 13 5 28 11 34 15 15 14 225 -1 252 -5
11 -10 31 -10 45 0 15 -4 35 -10 46 -11 22 -20 39 -52 103 -33 64 -163 187
-233 221 -83 39 -93 43 -155 55 -76 14 -141 20 -165 15z m174 -60 c94 -21 176
-69 257 -149 69 -68 123 -157 140 -228 l6 -28 -37 16 c-21 8 -45 21 -53 27
-25 22 -127 153 -139 180 -16 36 -57 47 -97 24 -29 -17 -30 -17 -92 26 -35 24
-65 51 -67 60 -3 10 -17 23 -31 29 -38 18 -80 -14 -84 -64 -3 -31 -9 -38 -47
-56 -56 -26 -77 -26 -100 -1 -22 24 -62 26 -87 3 -24 -22 -23 -71 3 -99 20
-21 20 -27 9 -56 -26 -70 -32 -78 -64 -78 -36 0 -76 -35 -76 -67 0 -25 32 -63
53 -63 7 0 28 -28 46 -61 33 -61 34 -61 17 -97 -17 -34 -16 -37 2 -61 10 -14
27 -28 37 -29 26 -6 105 -93 105 -116 0 -70 70 -166 120 -166 13 0 20 -7 20
-20 0 -23 -13 -24 -91 -10 -152 28 -313 151 -381 291 -37 75 -68 191 -68 251
0 49 27 169 50 224 73 170 240 298 427 328 84 14 123 12 222 -10z m-114 -110
c0 -33 -4 -40 -22 -42 -21 -3 -23 1 -23 36 0 38 12 54 35 48 6 -2 10 -20 10
-42z m-246 -83 c27 -21 25 -55 -4 -59 -12 -2 -31 8 -43 21 -21 23 -22 26 -7
41 20 20 24 20 54 -3z m290 5 c6 -7 25 -16 41 -20 40 -8 114 -77 139 -131 14
-31 21 -65 21 -109 0 -67 -12 -102 -60 -176 -16 -25 -32 -52 -36 -60 -3 -8
-10 -23 -15 -32 -5 -10 -9 -31 -9 -47 0 -17 -4 -33 -10 -36 -5 -3 -10 -38 -10
-78 0 -69 -1 -73 -37 -109 -33 -34 -43 -38 -85 -38 -43 0 -52 4 -88 40 -39 39
-40 42 -40 107 0 80 -37 195 -84 263 -40 59 -56 104 -56 165 0 67 19 117 65
172 44 52 105 83 185 93 30 4 58 8 61 9 4 0 12 -5 18 -13z m219 -12 c3 -24
-41 -59 -64 -50 -21 8 -17 43 9 61 28 20 51 15 55 -11z m-600 -240 c7 -2 12
-14 10 -26 -3 -20 -9 -23 -43 -23 -30 0 -41 4 -43 18 -9 44 10 52 76 31z m697
-24 c0 -20 -6 -26 -30 -28 -19 -3 -33 2 -42 14 -18 25 2 46 41 42 26 -2 31 -7
31 -28z m-593 -216 c11 -24 9 -29 -16 -51 l-29 -25 -20 21 -21 21 29 30 c35
37 42 37 57 4z m475 -6 c29 -27 29 -45 2 -53 -35 -11 -77 44 -52 68 11 12 26
8 50 -15z"></path>
<path d="M990 1171 c0 -12 5 -21 10 -21 6 0 10 6 10 14 0 8 -4 18 -10 21 -5 3
-10 -3 -10 -14z"></path>
<path d="M774 1165 c-3 -8 0 -36 6 -62 7 -26 16 -82 20 -123 4 -41 11 -85 15
-97 11 -33 29 -29 21 5 -3 15 -9 70 -12 122 -4 52 -11 101 -16 107 -16 20 -1
43 27 43 14 0 25 5 25 10 0 16 -80 12 -86 -5z"></path>
<path d="M887 1174 c-9 -10 2 -24 19 -24 8 0 14 7 14 15 0 15 -21 21 -33 9z"></path>
<path d="M990 1090 c0 -11 5 -20 10 -20 6 0 10 9 10 20 0 11 -4 20 -10 20 -5
0 -10 -9 -10 -20z"></path>
<path d="M820 815 c0 -15 6 -25 14 -25 22 0 30 19 16 35 -18 22 -30 18 -30
-10z"></path>
<path d="M926 821 c-9 -15 23 -36 36 -23 5 5 7 15 4 21 -9 13 -33 14 -40 2z"></path>
<path d="M3114 1605 c-10 -25 9 -37 52 -33 31 2 39 7 39 23 0 16 -8 21 -43 23
-32 2 -44 -1 -48 -13z"></path>
<path d="M5157 1614 c-4 -4 -7 -81 -7 -171 l0 -164 40 3 41 3 0 165 1 165 -34
3 c-18 2 -37 0 -41 -4z"></path>
<path d="M6316 1612 c-3 -5 -6 -80 -7 -168 l-1 -159 41 0 42 0 0 165 1 165
-35 3 c-19 2 -38 -1 -41 -6z"></path>
<path d="M1882 1570 c-47 -29 -72 -75 -72 -137 0 -98 59 -153 167 -153 72 0
103 18 103 61 0 34 -19 38 -45 9 -27 -30 -88 -27 -114 5 -27 35 -35 78 -21
120 22 66 95 87 140 40 27 -29 40 -24 40 14 0 41 -36 61 -107 61 -40 0 -68 -6
-91 -20z"></path>
<path d="M2940 1561 c0 -20 -7 -34 -20 -41 -11 -6 -20 -17 -20 -25 0 -8 9 -19
20 -25 17 -9 20 -21 20 -84 0 -68 2 -75 25 -90 17 -12 42 -16 73 -14 39 3 47
6 47 23 0 14 -8 21 -30 25 -29 5 -30 6 -33 72 l-3 67 33 3 c25 2 33 8 33 23 0
15 -8 21 -32 23 -28 3 -32 7 -35 35 -3 29 -6 32 -40 35 -36 3 -38 2 -38 -27z"></path>
<path d="M4026 1565 c-30 -27 -32 -48 -11 -89 14 -26 13 -30 -10 -58 -14 -16
-25 -39 -25 -51 0 -26 26 -60 57 -76 28 -14 118 -14 145 0 14 8 27 8 42 1 38
-18 94 -22 106 -6 10 11 7 15 -12 23 -45 17 -53 37 -33 80 20 45 14 61 -20 61
-34 0 -55 -10 -55 -26 0 -18 -24 -18 -39 -1 -8 10 -4 20 19 42 64 61 21 125
-83 125 -44 0 -59 -5 -81 -25z m108 -40 c7 -20 -3 -45 -19 -45 -19 0 -38 28
-31 45 7 19 42 19 50 0z m-2 -152 c35 -34 35 -43 0 -43 -33 0 -67 32 -59 55 9
22 27 19 59 -12z"></path>
<path d="M4585 1571 c-95 -55 -98 -205 -5 -268 65 -45 210 -23 210 32 0 34
-16 40 -46 16 -57 -45 -131 -15 -141 56 -7 53 2 87 29 113 30 27 74 25 115 -6
18 -14 33 -24 34 -22 1 2 2 17 4 35 2 25 -3 36 -21 48 -33 21 -140 19 -179 -4z"></path>
<path d="M5307 1583 c-4 -3 -7 -19 -7 -34 0 -15 -7 -29 -15 -33 -19 -7 -20
-32 -1 -43 8 -5 15 -34 18 -81 7 -97 22 -114 97 -110 48 3 56 6 56 23 0 15 -8
21 -32 23 -38 4 -46 23 -41 93 3 39 6 44 30 47 31 4 56 28 42 42 -5 4 -22 10
-39 12 -26 3 -30 8 -33 36 -3 29 -6 32 -36 32 -18 0 -36 -3 -39 -7z"></path>
<path d="M2138 1513 c-3 -4 -4 -57 -3 -118 l2 -110 38 0 39 0 3 84 c1 47 6 88
10 92 5 4 26 9 48 11 32 2 40 7 40 23 0 17 -6 20 -35 18 -54 -4 -62 -4 -101 3
-20 3 -39 2 -41 -3z"></path>
<path d="M2397 1502 c-44 -29 -56 -53 -57 -108 0 -40 5 -55 23 -71 37 -35 63
-43 130 -43 51 0 68 4 82 20 23 26 4 56 -25 40 -42 -22 -130 -7 -130 22 0 4
37 8 83 10 l82 3 -3 45 c-2 37 -8 50 -34 73 -39 33 -107 37 -151 9z m103 -47
c17 -21 4 -35 -35 -35 -19 0 -37 5 -40 10 -10 16 14 40 40 40 12 0 28 -7 35
-15z"></path>
<path d="M2648 1495 c-16 -34 3 -56 32 -37 27 16 75 15 90 -3 17 -20 4 -35
-33 -35 -18 -1 -48 -9 -67 -18 -28 -14 -36 -24 -38 -50 -6 -61 16 -72 132 -70
l101 3 2 65 c3 137 -24 170 -142 170 -60 0 -66 -2 -77 -25z m130 -142 c-4 -23
-68 -32 -68 -10 0 20 10 27 42 27 23 0 29 -4 26 -17z"></path>
<path d="M3127 1513 c-3 -5 -4 -58 -4 -118 l2 -110 39 0 39 0 0 115 -1 115
-35 3 c-19 2 -37 -1 -40 -5z"></path>
<path d="M3248 1513 c-3 -4 15 -59 40 -120 l44 -113 47 0 47 0 13 46 c8 26 26
76 42 112 15 37 25 70 23 74 -3 4 -20 8 -38 8 -30 0 -35 -4 -49 -42 -8 -24
-18 -53 -22 -65 -11 -40 -30 -25 -52 40 -20 59 -22 62 -56 65 -19 2 -37 -1
-39 -5z"></path>
<path d="M3603 1500 c-17 -10 -37 -28 -42 -39 -14 -25 -14 -106 -1 -131 17
-32 68 -50 140 -50 68 0 90 10 90 41 0 23 -19 34 -33 20 -15 -15 -100 -14
-115 1 -23 23 -12 28 61 28 40 0 78 5 84 11 18 18 -2 91 -34 116 -36 29 -105
31 -150 3z m91 -36 c9 -3 16 -15 16 -25 0 -15 -7 -19 -38 -19 -48 0 -57 8 -35
32 17 19 31 22 57 12z"></path>
<path d="M4837 1513 c-2 -4 -1 -49 2 -99 5 -71 10 -97 25 -113 21 -23 74 -28
106 -11 13 7 21 7 25 0 3 -5 24 -10 46 -10 l40 0 -3 118 -3 117 -35 0 -35 0
-3 -70 c-3 -108 -7 -117 -45 -113 l-32 3 -5 90 -5 90 -37 3 c-20 2 -38 -1 -41
-5z"></path>
<path d="M5492 1422 c2 -81 7 -104 22 -121 20 -22 78 -29 106 -11 9 5 19 5 27
-1 6 -6 27 -9 45 -7 l33 3 0 115 0 115 -35 0 -35 0 -5 -90 -5 -90 -32 -3 c-38
-4 -42 5 -45 113 l-3 70 -38 3 -39 3 4 -99z"></path>
<path d="M5805 1508 c-3 -8 -4 -61 -3 -119 l3 -104 40 0 40 0 -3 72 c-5 89 7
113 52 113 36 0 62 22 51 41 -5 7 -19 8 -39 5 -38 -8 -51 -8 -98 0 -28 5 -39
2 -43 -8z"></path>
<path d="M6028 1495 c-16 -34 3 -56 32 -37 27 16 75 15 90 -3 17 -20 4 -35
-33 -35 -18 -1 -48 -9 -67 -18 -28 -14 -36 -24 -38 -50 -6 -61 16 -72 132 -70
l101 3 0 75 c0 41 -3 88 -8 103 -13 39 -54 57 -132 57 -60 0 -66 -2 -77 -25z
m130 -142 c-4 -23 -68 -32 -68 -10 0 20 10 27 42 27 23 0 29 -4 26 -17z"></path>
<path d="M5349 913 c0 -4 0 -80 0 -168 l0 -160 38 0 38 0 3 80 c3 99 5 105 37
105 34 0 47 -37 43 -120 l-3 -65 39 0 39 0 -2 95 c-2 82 -5 98 -24 118 -22 24
-66 27 -109 8 -15 -7 -17 0 -20 51 l-3 58 -37 3 c-21 2 -38 0 -39 -5z"></path>
<path d="M5654 905 c-10 -25 9 -37 52 -33 31 2 39 7 39 23 0 16 -8 21 -43 23
-32 2 -44 -1 -48 -13z"></path>
<path d="M1830 735 l0 -155 116 0 c114 0 115 0 112 23 -3 20 -9 22 -75 25
l-73 3 0 44 0 44 68 3 c59 3 67 5 67 23 0 17 -8 21 -65 25 -65 5 -65 5 -68 37
l-3 32 73 3 c67 3 73 5 76 26 3 22 2 22 -112 22 l-116 0 0 -155z"></path>
<path d="M2437 884 c-4 -4 -7 -18 -7 -30 0 -13 -9 -28 -20 -34 -25 -13 -26
-36 -1 -49 15 -9 20 -25 23 -85 4 -92 18 -107 93 -103 42 2 50 5 50 22 0 14
-8 21 -30 25 -29 5 -30 6 -33 72 l-3 67 33 3 c25 2 33 8 33 23 0 14 -8 21 -30
25 -24 4 -31 11 -35 35 -4 25 -10 31 -35 33 -17 2 -34 0 -38 -4z"></path>
<path d="M2114 807 c-2 -7 -3 -60 -2 -118 l3 -104 39 0 39 0 -2 81 c-2 88 8
108 51 102 22 -3 23 -8 28 -93 l5 -90 39 0 39 0 -2 83 c-3 91 -6 108 -29 135
-17 19 -81 24 -99 6 -8 -8 -17 -8 -31 0 -28 15 -72 14 -78 -2z"></path>
<path d="M2620 710 c0 -60 0 -113 0 -117 0 -5 17 -8 38 -8 l37 0 5 90 5 90 45
5 c37 4 45 9 45 25 0 25 -29 31 -62 14 -18 -10 -26 -10 -35 -1 -7 7 -27 12
-45 12 l-33 0 0 -110z"></path>
<path d="M2880 802 c-45 -31 -59 -55 -60 -102 0 -84 48 -120 158 -120 74 0 97
12 90 47 -2 12 -11 17 -23 14 -80 -14 -111 -12 -129 8 l-19 21 71 0 c39 0 77
3 86 6 37 14 7 111 -41 133 -35 16 -104 12 -133 -7z m100 -47 c17 -21 4 -35
-35 -35 -19 0 -37 5 -40 10 -10 16 14 40 40 40 12 0 28 -7 35 -15z"></path>
<path d="M3124 806 c-3 -7 -3 -81 -2 -166 l3 -155 40 0 40 0 3 48 3 47 48 0
c39 0 52 5 74 28 39 41 51 83 37 129 -23 72 -39 81 -147 81 -62 0 -96 -5 -99
-12z m156 -55 c15 -29 12 -87 -6 -105 -8 -9 -26 -16 -40 -16 -23 0 -24 3 -24
63 0 35 3 67 7 70 13 14 53 6 63 -12z"></path>
<path d="M3439 813 c0 -5 0 -57 0 -118 l0 -110 40 -3 40 -3 3 93 3 93 45 5
c37 4 45 9 45 25 0 25 -29 31 -62 14 -18 -10 -26 -10 -35 -1 -13 13 -78 17
-79 5z"></path>
<path d="M3704 803 c-40 -20 -64 -61 -64 -110 0 -76 51 -113 158 -113 74 0 97
12 90 47 -2 12 -11 17 -23 14 -80 -14 -111 -12 -129 8 l-19 21 71 0 c39 0 77
3 86 6 34 13 13 95 -34 131 -21 17 -99 15 -136 -4z m96 -48 c17 -21 4 -35 -35
-35 -19 0 -37 5 -40 10 -10 16 14 40 40 40 12 0 28 -7 35 -15z"></path>
<path d="M3950 818 c-1 -2 -2 -55 -3 -118 l-2 -115 40 0 40 0 1 77 c1 94 6
108 39 108 34 0 47 -37 43 -120 l-3 -65 40 0 39 0 -3 100 c-2 89 -5 102 -24
117 -25 20 -69 23 -99 7 -14 -8 -23 -8 -31 0 -9 9 -76 16 -77 9z"></path>
<path d="M4286 786 c-32 -30 -36 -39 -36 -85 0 -29 4 -61 10 -71 17 -32 68
-50 140 -50 68 0 90 10 90 41 0 23 -19 34 -33 20 -15 -15 -100 -14 -115 1 -23
23 -12 28 61 28 40 0 78 5 84 11 6 6 7 26 2 52 -10 59 -48 87 -116 87 -45 0
-56 -4 -87 -34z m113 -25 c23 -15 5 -41 -28 -41 -35 0 -48 15 -31 35 14 17 38
19 59 6z"></path>
<path d="M4547 813 c-2 -4 -1 -50 3 -100 8 -109 22 -133 79 -133 20 0 43 4 51
10 9 5 19 5 27 -1 6 -6 27 -9 45 -7 l33 3 0 115 0 115 -37 3 -38 3 0 -80 c0
-99 -4 -111 -41 -111 -34 0 -38 11 -41 115 l-3 70 -37 3 c-20 2 -38 -1 -41 -5z"></path>
<path d="M4867 814 c-4 -4 -7 -59 -7 -121 l0 -114 42 3 43 3 -3 81 c-4 90 2
100 58 106 27 2 35 7 35 23 0 16 -6 19 -30 17 -44 -3 -56 -3 -95 4 -19 3 -38
2 -43 -2z"></path>
<path d="M5110 802 c-33 -22 -40 -32 -40 -63 0 -33 26 -57 71 -65 36 -7 59
-21 59 -35 0 -13 -77 -11 -102 2 -29 16 -45 -3 -30 -36 11 -23 16 -25 83 -25
62 0 77 4 106 26 61 46 38 103 -50 119 -44 8 -68 31 -43 41 9 3 29 4 44 1 61
-12 66 -12 70 6 2 10 -2 24 -8 32 -18 21 -127 19 -160 -3z"></path>
<path d="M5660 816 c-1 -3 -1 -57 -1 -118 l-1 -113 42 -3 41 -3 -3 118 -3 118
-37 3 c-21 2 -38 1 -38 -2z"></path>
<path d="M5804 806 c-3 -7 -3 -81 -2 -166 l3 -155 40 0 c36 0 40 3 41 25 3 74
0 70 52 70 40 0 52 5 73 28 52 58 59 87 35 143 -25 60 -41 67 -144 67 -62 0
-95 -4 -98 -12z m156 -55 c15 -29 12 -87 -6 -105 -20 -21 -60 -21 -68 0 -9 25
-7 83 4 105 6 11 21 19 35 19 14 0 29 -8 35 -19z"></path>
</g>
</svg>