<svg id="Capa_1" enable-background="new 0 0 512 512" height="512" viewBox="0 0 512 512" width="512" xmlns="http://www.w3.org/2000/svg"><g><path d="m256 436c-28.92 0-56.262-6.866-80.5-19.037v14.537c0 44.388 36.112 80.5 80.5 80.5s80.5-36.112 80.5-80.5v-14.537c-24.238 12.171-51.58 19.037-80.5 19.037z"/><path d="m241 0h30v61h-30z"/><path d="m128.25 30.211h30v61h-30z" transform="matrix(.866 -.5 .5 .866 -11.164 79.759)"/><path d="m45.712 112.75h30v61h-30z" transform="matrix(.5 -.866 .866 .5 -93.702 124.202)"/><path d="m0 241h61v30h-61z"/><path d="m30.212 353.75h61v30h-61z" transform="matrix(.866 -.5 .5 .866 -176.243 79.76)"/><path d="m436.289 338.25h30v61h-30z" transform="matrix(.5 -.866 .866 .5 -93.703 575.201)"/><path d="m451 241h61v30h-61z"/><path d="m420.789 128.25h61v30h-61z" transform="matrix(.866 -.5 .5 .866 -11.163 244.838)"/><path d="m338.25 45.711h61v30h-61z" transform="matrix(.5 -.866 .866 .5 131.796 349.701)"/><path d="m256 406c82.71 0 150-67.29 150-150s-67.29-150-150-150-150 67.29-150 150 67.29 150 150 150zm-75-205h30v75h30v-75h30v75h30v-75h30v105h-150z"/></g></svg>