<?xml version="1.0" standalone="no"?>
<!DOCTYPE svg PUBLIC "-//W3C//DTD SVG 20010904//EN"
 "http://www.w3.org/TR/2001/REC-SVG-20010904/DTD/svg10.dtd">
<svg version="1.0" xmlns="http://www.w3.org/2000/svg"
 width="600.000000pt" height="93.000000pt" viewBox="0 0 600.000000 93.000000"
 preserveAspectRatio="xMidYMid meet">
<metadata>
Created by potrace 1.10, written by Peter Selinger 2001-2011
</metadata>
<g transform="translate(0.000000,93.000000) scale(0.100000,-0.100000)"
fill="#000000" stroke="none">
<path d="M5205 739 c-11 -4 -34 -21 -52 -37 -18 -17 -53 -45 -77 -63 l-45 -32
20 -28 c24 -34 43 -36 66 -9 10 11 25 20 34 20 14 0 16 -14 12 -122 -3 -68 -6
-128 -8 -135 -2 -6 -23 -13 -47 -15 -43 -3 -43 -3 -43 -43 l0 -40 148 -3 147
-3 0 45 0 45 -56 3 -57 3 2 160 c1 88 4 181 7 206 5 40 4 47 -13 51 -10 3 -28
2 -38 -3z"/>
<path d="M260 733 c-19 -3 -39 -8 -43 -13 -5 -4 -9 -115 -9 -246 l-1 -239 54
0 54 0 0 75 c0 41 3 80 7 86 5 7 36 12 74 12 61 0 69 3 99 32 63 61 69 182 13
251 -28 34 -146 54 -248 42z m158 -103 c29 -24 39 -73 20 -102 -9 -13 -36 -29
-63 -37 -44 -13 -48 -13 -58 5 -11 18 -11 130 0 147 9 14 78 6 101 -13z"/>
<path d="M745 731 c-3 -5 -18 -12 -34 -16 -40 -9 -81 -55 -103 -117 -24 -68
-26 -229 -3 -248 8 -7 15 -20 15 -29 0 -18 27 -46 72 -74 41 -26 192 -24 236
3 l32 20 0 115 0 115 -96 0 -95 0 3 -32 c3 -30 7 -33 47 -40 68 -11 87 -40 61
-89 -9 -15 -22 -19 -63 -19 -45 0 -57 4 -80 28 -15 15 -27 33 -27 39 0 6 -7
17 -16 24 -20 17 -14 110 10 157 35 67 124 101 174 66 30 -21 42 -15 57 29 12
35 11 38 -12 57 -20 16 -41 20 -99 20 -40 0 -75 -4 -79 -9z"/>
<path d="M1309 721 c-49 -22 -67 -38 -98 -86 -24 -38 -26 -47 -26 -162 0 -101
3 -125 18 -140 9 -11 17 -23 17 -26 0 -10 39 -47 49 -47 5 0 14 -7 21 -15 10
-11 35 -15 110 -15 111 0 123 7 118 67 -2 32 -6 37 -23 35 -98 -15 -124 -14
-151 7 -46 36 -64 75 -64 141 0 70 24 119 76 151 34 21 45 21 116 3 24 -5 29
-2 38 21 16 42 12 61 -15 73 -38 17 -144 13 -186 -7z"/>
<path d="M1985 733 c-16 -3 -33 -8 -37 -11 -4 -4 -8 -115 -9 -247 l-1 -240 48
0 49 0 -4 92 c-3 82 -1 92 16 101 10 6 23 8 29 4 5 -4 31 -50 59 -103 l49 -97
51 -5 c52 -5 75 -1 75 13 0 13 -102 164 -117 173 -23 14 -14 46 16 62 21 10
34 29 46 64 15 45 15 52 1 80 -9 16 -16 36 -16 44 0 50 -135 87 -255 70z m149
-109 c23 -22 27 -32 22 -56 -8 -41 -43 -67 -88 -68 l-38 0 0 68 c0 38 3 72 7
75 16 17 70 6 97 -19z"/>
<path d="M2580 729 c-30 -5 -110 -7 -177 -3 l-123 6 0 -33 c0 -52 22 -68 86
-62 42 5 54 3 55 -8 0 -8 0 -101 -1 -206 l-1 -193 50 0 c27 0 52 3 54 8 2 4 1
88 -2 187 -4 100 -3 188 2 199 8 16 16 17 55 12 92 -13 87 -15 90 32 3 39 -10
74 -27 71 -3 -1 -31 -5 -61 -10z"/>
<path d="M3360 719 c-163 -88 -178 -378 -23 -469 28 -16 52 -20 127 -20 119 0
132 11 101 87 -14 34 -16 35 -33 19 -12 -10 -36 -16 -63 -16 -95 0 -152 96
-127 213 8 37 19 54 52 82 47 39 87 45 124 19 29 -20 39 -12 47 38 6 34 4 44
-11 55 -27 20 -151 15 -194 -8z"/>
<path d="M3651 726 c-8 -10 -11 -84 -10 -255 l2 -241 109 0 c113 0 132 5 196
52 33 24 61 84 67 143 6 59 6 56 1 121 -10 124 -108 194 -272 194 -58 0 -85
-4 -93 -14z m179 -91 c7 -8 19 -15 26 -15 8 0 25 -18 39 -40 19 -30 25 -53 25
-95 0 -101 -51 -164 -132 -165 l-48 0 0 158 c0 87 3 162 7 165 12 13 71 7 83
-8z"/>
<path d="M4313 722 c-31 -12 -43 -22 -43 -37 1 -63 32 -87 74 -54 48 37 116
10 116 -46 0 -42 -75 -164 -146 -237 -34 -35 -46 -56 -47 -80 l-2 -33 147 -3
147 -3 7 25 c13 53 5 61 -74 64 -41 2 -72 7 -72 13 0 6 16 30 35 54 63 76 95
151 95 219 -1 65 -12 86 -62 119 -34 21 -116 21 -175 -1z"/>
<path d="M4730 722 c-71 -49 -90 -101 -90 -248 0 -123 13 -165 70 -219 27 -26
38 -29 93 -29 73 0 117 25 148 86 28 55 28 281 0 337 -31 60 -80 91 -143 90
-33 0 -62 -7 -78 -17z m129 -106 c18 -28 21 -49 21 -136 0 -110 -13 -149 -55
-168 -25 -11 -49 3 -77 45 -28 43 -26 201 4 254 18 33 27 39 54 39 26 0 36 -7
53 -34z"/>
<path d="M5500 721 c-59 -32 -80 -70 -80 -146 0 -55 4 -72 25 -99 14 -19 42
-38 64 -46 35 -11 53 -11 101 1 10 3 16 -5 18 -21 4 -33 -56 -83 -107 -90 -34
-5 -36 -8 -39 -44 -5 -61 29 -72 104 -34 48 24 134 108 134 131 0 8 7 31 15
50 23 55 20 193 -5 234 -46 76 -152 105 -230 64z m138 -95 c24 -26 29 -74 12
-107 -8 -14 -21 -19 -52 -19 -75 0 -113 67 -70 125 24 33 79 34 110 1z"/>
<path d="M1580 478 l0 -249 148 3 147 3 3 42 c2 30 -1 43 -10 44 -7 1 -53 2
-103 3 l-90 1 -3 58 -3 57 91 0 90 0 0 45 0 45 -91 0 -90 0 3 53 3 52 88 0
c97 0 111 8 105 63 l-3 27 -142 0 -143 1 0 -248z"/>
<path d="M2840 690 c0 -44 31 -72 65 -59 32 12 85 10 86 -3 0 -7 0 -100 -1
-205 l-1 -193 50 0 c27 0 52 3 54 8 2 4 1 88 -2 187 -4 99 -3 188 2 198 7 16
18 18 70 15 60 -3 61 -3 69 27 16 61 17 61 -197 61 l-195 1 0 -37z"/>
</g>
</svg>
